<svg viewBox="0 0 32 32" xmlns="http://www.w3.org/2000/svg"><path d="M16.659 21.845c-2.371.126-3.481-.409-4.498-1.382-1.135-1.087-.679-2.326.245-2.389.924-.063 1.479 1.068 1.973 1.383.493.314 2.367 1.028 3.358-.127 1.078-1.257-.717-1.906-2.034-2.104-1.879-.283-4.252-1.32-4.067-3.363.184-2.041 1.701-3.088 3.296-3.236 2.034-.188 3.358.314 4.405 1.226 1.211 1.053.555 2.23-.215 2.325-.768.094-1.631-1.732-3.326-1.759-1.747-.028-2.927 1.854-.771 2.388 2.157.534 4.468.754 5.3 2.764.833 2.012-1.293 4.147-3.666 4.274zm6.687-4.784c.045-.335.07-.675.07-1.021 0-4.155-3.338-7.524-7.454-7.524-.409 0-.81.034-1.201.099a4.389 4.389 0 0 0-2.43-.733c-2.458 0-4.448 2.021-4.448 4.514 0 .907.263 1.75.716 2.457a7.612 7.612 0 0 0-.092 1.186c0 4.156 3.336 7.524 7.454 7.524a7.56 7.56 0 0 0 1.357-.126 4.4 4.4 0 0 0 2.352.68c2.457 0 4.448-2.021 4.448-4.514 0-.942-.284-1.818-.772-2.542z" fill="#414752"/><path d="M16 1c8.271 0 15 6.729 15 15s-6.729 15-15 15S1 24.271 1 16 7.729 1 16 1m0-1C7.163 0 0 7.163 0 16s7.163 16 16 16 16-7.163 16-16S24.837 0 16 0z" fill="#414752"/></svg>