<svg xmlns="http://www.w3.org/2000/svg" width="160" height="32" viewBox="0 0 160 32"><path d="M50.867-.214H33.333C32.6-.214 32 .386 32 1.12v29.333c0 .733.6 1.333 1.333 1.333h24.134c.733 0 1.333-.6 1.333-1.333V7.72L50.867-.214z" fill="#f2f2f2"/><path d="M52.2 7.72h6.6L50.867-.214v6.6c0 .734.6 1.334 1.333 1.334zm-6.4 3.2h9.867v1.533H45.8zm-10.667 4.066h20.6v1.534h-20.6zm0 4.134h20.6v1.533h-20.6zm0 4.066h16.2v1.533h-16.2zm0 4.067H40.4v1.533h-5.267z" fill="#cdd6e0"/><path fill="#84dbff" d="M35.133 2.786h7.4v9.733h-7.4z"/><path d="M49.533 29.653l10.934-10.867-4.934-4.933L44.6 24.719a.932.932 0 0 0-.2.267c-.067.067-.067.2-.067.267l-.066.267-1 3.733-.667 2.533 2.533-.666 3.734-1 .266-.067a.51.51 0 0 0 .267-.133c0-.134.067-.134.133-.267z" fill="#ffd15c"/><path d="M45.533 26.786L57 15.253l-1.467-1.467L44.6 24.72a.932.932 0 0 0-.2.267c-.067.067-.067.2-.067.267l-.066.267 1.266 1.266zm4 2.867l10.934-10.867L59 17.32 47.533 28.786l1.267 1.267.267-.067c.066 0 .2-.067.266-.133.067-.067.134-.067.2-.2z" fill="#ff7058"/><path fill="#334a5e" d="M45.067 31.053L43.2 29.186l-.667 2.533z"/><path d="M63.6 13.72l-3.067-3.067a1.289 1.289 0 0 0-1.866 0l-1.6 1.6L62 17.186l1.6-1.6c.533-.466.533-1.333 0-1.866z" fill="#40596b"/><path fill="#f1543f" d="M59.028 17.283L47.522 28.782l-2.026-2.028L57 15.256z"/><path fill="#ffd15c" d="M57.008 12.314l4.951 4.949-1.508 1.508-4.951-4.948z"/><g transform="scale(.06283)"><circle r="254.644" cy="254.644" cx="254.644" fill="#fbd303"/><path d="M254.644 367.555c96.636 0 182.76-43.74 239.724-112.911-56.964-68.832-143.089-112.911-239.724-112.911-96.635 0-182.761 44.079-239.725 112.911 56.964 68.831 143.089 112.911 239.725 112.911z" fill="#fcfcfd"/><circle r="106.13" cy="254.644" cx="254.644" fill="#6eb1e1"/><circle r="64.085" cy="254.644" cx="254.644" fill="#646b79"/><g fill="#fcfcfd"><circle r="24.413" cy="228.196" cx="254.644"/><path d="M254.644 318.728c20.344 0 38.654-9.494 50.183-24.413-6.781-21.362-26.787-36.959-50.183-36.959s-43.74 15.597-50.183 36.959c11.528 14.919 29.838 24.413 50.183 24.413z"/></g></g><path d="M154.182 12.62a10.1 10.1 0 0 0-4.364-.984c-4.053 0-7.56 2.382-9.198 5.819a10.106 10.106 0 0 0-.984 4.363c0 5.614 4.568 10.182 10.182 10.182C155.432 32 160 27.432 160 21.818c0-4.053-2.381-7.56-5.818-9.198zm-.232 8.093l-4.132 4.132-.232.232a1.45 1.45 0 0 1-1.028.426 1.45 1.45 0 0 1-1.029-.426l-1.94-1.94a1.454 1.454 0 1 1 2.058-2.057l.91.911 1.261-1.26 2.075-2.075a1.454 1.454 0 1 1 2.057 2.057z" fill="#c2fb3b"/><path d="M154.175 1.317l-.005-.04a1.377 1.377 0 0 0-.043-.215c-.006-.02-.01-.038-.017-.057l-.003-.01c-.007-.023-.016-.044-.025-.066a1.712 1.712 0 0 0-.07-.157l-.024-.041a1.681 1.681 0 0 0-.043-.072l-.027-.039a1.568 1.568 0 0 0-.052-.07l-.026-.032a1.456 1.456 0 0 0-.071-.078l-.016-.017a1.443 1.443 0 0 0-.094-.086l-.03-.023a1.435 1.435 0 0 0-.071-.053l-.043-.028a1.36 1.36 0 0 0-.187-.102l-.042-.02a1.481 1.481 0 0 0-.114-.042l-.049-.013a1.353 1.353 0 0 0-.216-.044l-.046-.006a1.583 1.583 0 0 0-.134-.006h-23.272c-.046 0-.09.003-.135.007l-.045.005a1.56 1.56 0 0 0-.217.044l-.048.014a1.458 1.458 0 0 0-.114.042c-.015.005-.028.012-.042.019a1.384 1.384 0 0 0-.188.102l-.042.028a1.526 1.526 0 0 0-.071.054l-.03.023a1.517 1.517 0 0 0-.094.085l-.016.017a1.408 1.408 0 0 0-.22.29l-.023.043a1.531 1.531 0 0 0-.07.156.753.753 0 0 0-.029.076l-.016.057a1.435 1.435 0 0 0-.043.215l-.005.04a1.455 1.455 0 0 0 .575 1.3l.872.656 1.455 1.09 9.31 6.983a1.453 1.453 0 0 0 1.745 0l9.309-6.982 1.454-1.091.873-.655a1.455 1.455 0 0 0 .575-1.3z" fill="#f2d23d"/><path d="M154.182 1.452c0 .45-.208.886-.582 1.166l-.873.655-1.454 1.09-9.31 6.982a1.453 1.453 0 0 1-1.745 0l-9.309-6.981-1.454-1.091-.873-.655A1.455 1.455 0 0 1 128 1.452v17.457c0 .803.651 1.455 1.455 1.455h10.286a10.094 10.094 0 0 1 1.35-3.783c1.783-2.96 5.027-4.945 8.727-4.945a10.226 10.226 0 0 1 2.91.424c.501.15.987.338 1.454.56V1.452z" fill="#f6e27d"/><path d="M147.53 25.077a1.45 1.45 0 0 0 1.028.426 1.45 1.45 0 0 0 1.028-.426l4.364-4.364a1.454 1.454 0 1 0-2.057-2.057l-3.335 3.335-.911-.91a1.454 1.454 0 1 0-2.057 2.056l1.94 1.94z" fill="#79ab03"/><path d="M140.218 11.345l-9.309-6.981-1.454-1.091-.873-.655A1.455 1.455 0 0 1 128 1.452v17.457c0 .803.651 1.455 1.455 1.455h10.286a10.094 10.094 0 0 1 1.35-3.783v-4.945a1.46 1.46 0 0 1-.873-.29z" fill="#f5dc60"/><path d="M128.582 2.618l.873.655 1.454 1.09 9.31 6.982c.258.194.565.291.872.291V0h-11.636c-.046 0-.09.003-.135.007l-.045.005a1.56 1.56 0 0 0-.217.044l-.048.014a1.458 1.458 0 0 0-.114.042c-.015.005-.028.012-.042.019l-.075.036-.046.026a1.539 1.539 0 0 0-.067.04l-.042.028a1.558 1.558 0 0 0-.071.054l-.03.023a1.517 1.517 0 0 0-.094.085l-.016.017a1.408 1.408 0 0 0-.22.29l-.023.043a1.531 1.531 0 0 0-.07.156.753.753 0 0 0-.029.076l-.016.057a1.435 1.435 0 0 0-.043.215l-.005.04a1.455 1.455 0 0 0 .575 1.3z" fill="#eebf00"/><path d="M140.62 17.454a10.106 10.106 0 0 0-.984 4.364c0 5.614 4.568 10.182 10.182 10.182v-7.155l-.232.232a1.45 1.45 0 0 1-1.028.426 1.45 1.45 0 0 1-1.029-.426l-1.94-1.94a1.454 1.454 0 1 1 2.058-2.057l.91.911 1.261-1.26v-9.095c-4.053 0-7.56 2.382-9.198 5.818z" fill="#9cdd05"/><path d="M105.174 31.095c-1.083-.089-1.82-.224-2.21-.404-.634-.3-.95-.84-.95-1.62 0-.39.117-.919.351-1.586.233-.667.951-2.516 2.153-5.544h12.201l1.853 4.452c.272.63.483 1.23.634 1.8.15.57.225.968.225 1.193 0 .675-.195 1.099-.587 1.271-.392.172-1.264.32-2.617.438v.86H128v-.86c-1.085-.15-1.858-.43-2.316-.842-.46-.412-1.074-1.487-1.844-3.226L112.307.781h-.923l-9.645 22.72c-1.444 3.406-2.466 5.49-3.06 6.251-.596.761-1.488 1.21-2.679 1.343v.86h9.174v-.86zm5.459-23.781l5.306 12.75h-10.636l5.33-12.75z" fill="#2d2d2d"/><g fill="#db2b42"><path d="M125.344 24.077a7.923 7.923 0 1 0-15.847 0 7.923 7.923 0 0 0 15.847 0zm-3.308 3.753h-3.278v-.24c.376-.033.62-.073.728-.122.11-.048.164-.166.164-.353a1.54 1.54 0 0 0-.063-.332 3.619 3.619 0 0 0-.177-.501l-.516-1.24h-3.397a58.455 58.455 0 0 0-.6 1.543 1.436 1.436 0 0 0-.097.442c0 .217.088.367.264.451.109.05.314.088.616.113v.24h-2.555v-.24c.332-.038.58-.162.746-.375.166-.212.45-.791.852-1.74l2.686-6.327h.257l3.212 7.309c.214.484.385.783.513.898.128.115.343.193.645.234v.24z"/><path d="M117.2 20.968l-1.484 3.55h2.962z"/></g><path d="M120.878 26.458l-3.212-7.309h-.257l-2.686 6.327c-.402.948-.686 1.528-.852 1.74-.166.213-.415.337-.746.375v.24h2.555v-.24c-.302-.025-.507-.063-.616-.113-.176-.084-.264-.234-.264-.451 0-.109.033-.256.097-.442.065-.186.265-.7.6-1.543h3.397l.516 1.24c.076.175.134.342.177.5.042.16.063.27.063.333 0 .188-.055.306-.164.353-.109.048-.351.09-.728.123v.24h3.278v-.24c-.302-.042-.517-.12-.645-.235-.128-.115-.299-.414-.513-.898zm-5.162-1.94l1.484-3.55 1.478 3.55h-2.962z" fill="#fff"/><path fill="#f7cf52" d="M69.176 19.67l2.6-1.407 5.842 5.842-1.408 2.6zm-3.636-3.874l5.864-5.863L77.7 9.12l-7.533 7.533zm14.544 14.545l-.857-4.627 7.534-7.533-.813 6.296z"/><path d="M90.963 4.918a6.917 6.917 0 0 0 4.306 2.007 16.634 16.634 0 0 1-4.142 6.89L86.76 18.18l-7.534 7.533-1.61-1.61-5.841-5.841-1.61-1.61 7.535-7.53 4.366-4.367a16.624 16.624 0 0 1 6.89-4.142 6.911 6.911 0 0 0 2.007 4.306zm-4.09 8.62a3.203 3.203 0 1 0-4.53-4.53 3.203 3.203 0 0 0 4.53 4.53z" fill="#008db3"/><path d="M95.874.007a16.63 16.63 0 0 1-.605 6.918 6.917 6.917 0 0 1-4.306-2.007A6.911 6.911 0 0 1 88.957.612a16.628 16.628 0 0 1 6.917-.605z" fill="#f7cf52"/><path fill="#f4581b" d="M65.66 31.235l-.895-.894 6.319-6.319.894.894zm2.691.765l-.894-.894 5.355-5.355.894.894zm-3.457-3.457L64 27.649l5.355-5.355.894.894z"/><path d="M85.073 14.442V8.104a3.204 3.204 0 0 1 0 6.338z" fill="#96e0de"/></svg>